<?xml version="1.0" standalone="no"?>
<!DOCTYPE svg PUBLIC "-//W3C//DTD SVG 1.1//EN" "http://www.w3.org/Graphics/SVG/1.1/DTD/svg11.dtd" >
<svg xmlns="http://www.w3.org/2000/svg" xmlns:xlink="http://www.w3.org/1999/xlink" preserveAspectRatio="xMidYMid meet" viewBox="0 0 24 24" style="font-size: 1.5em;"><g fill="none"><path d="M14.754 10c.966 0 1.75.784 1.75 1.75V15H16.5v1h-9v-3h.002v-1.25c0-.966.783-1.75 1.75-1.75h5.502z" fill="currentColor"></path><path d="M22 11.75A1.75 1.75 0 0 0 20.25 10h-3.375c.393.475.629 1.085.629 1.75V13H17.5v3h3.75a.75.75 0 0 0 .75-.75v-3.5z" fill="currentColor"></path><path d="M6.5 15h.002v-3.25l.009-.22c.045-.58.27-1.108.62-1.53H3.75l-.144.006A1.75 1.75 0 0 0 2 11.75v3.5c0 .414.336.75.75.75H6.5v-1z" fill="currentColor"></path><path d="M12 3a3 3 0 1 1 0 6a3 3 0 0 1 0-6z" fill="currentColor"></path><path d="M18.5 4a2.5 2.5 0 1 1 0 5a2.5 2.5 0 0 1 0-5z" fill="currentColor"></path><path d="M5.5 4a2.5 2.5 0 1 1 0 5a2.5 2.5 0 0 1 0-5z" fill="currentColor"></path><path d="M2 17.75a.75.75 0 0 1 .75-.75h18.5a.75.75 0 0 1 .75.75v.5A3.75 3.75 0 0 1 18.25 22H5.75A3.75 3.75 0 0 1 2 18.25v-.5z" fill="currentColor"></path></g></svg>
