<?xml version="1.0" standalone="no"?>
<!DOCTYPE svg PUBLIC "-//W3C//DTD SVG 1.1//EN" "http://www.w3.org/Graphics/SVG/1.1/DTD/svg11.dtd" >
<svg xmlns="http://www.w3.org/2000/svg" xmlns:xlink="http://www.w3.org/1999/xlink" version="1.1" viewBox="-10 0 1034 1024">
  <g transform="matrix(1 0 0 -1 0 819)">
   <path fill="currentColor"
d="M841 212l28 -27c24 -25 44 -73 44 -108s-20 -83 -44 -108l-18 -18c-25 -24 -74 -44 -109 -44c-25 0 -62 11 -83 25c-77 51 -194 146 -261 211l-227 -227c-6 -8 -18 -14 -27 -14c-19 0 -35 16 -35 35c0 8 6 20 13 26l228 227c-66 67 -161 186 -213 264
c-15 22 -26 60 -26 85c0 34 19 82 43 107l18 17c25 25 73 45 108 45s83 -20 108 -45l28 -28c25 -24 44 -73 44 -108c0 -25 -11 -62 -24 -83c25 -29 52 -58 79 -87l342 342c3 3 13 5 18 5c19 0 34 -15 34 -34c0 -6 -1 -14 -5 -19l-341 -341c28 -27 56 -53 86 -78
c21 14 58 25 83 25c35 0 84 -20 109 -45zM192 492h1c50 -75 141 -188 204 -253l72 69c-36 37 -70 74 -102 113c-4 6 -8 15 -8 22c0 8 5 19 10 24c14 14 25 40 25 60c0 19 -11 46 -25 59l-28 28c-13 14 -40 25 -60 25c-19 0 -46 -11 -59 -25l-17 -17c-14 -13 -26 -40 -26 -60
c0 -13 6 -34 13 -45zM819 17c14 13 25 40 25 59c0 20 -11 47 -25 60l-28 29c-14 13 -40 24 -59 24s-46 -11 -60 -24c-5 -6 -16 -10 -24 -10c-7 0 -16 3 -22 8c-38 32 -75 66 -112 100l-71 -71c65 -63 178 -154 253 -204c11 -8 32 -14 46 -14c19 0 46 11 59 25z" />
  </g>

</svg>
