<?xml version="1.0" standalone="no"?>
<!DOCTYPE svg PUBLIC "-//W3C//DTD SVG 1.1//EN" "http://www.w3.org/Graphics/SVG/1.1/DTD/svg11.dtd" >
<svg xmlns="http://www.w3.org/2000/svg" xmlns:xlink="http://www.w3.org/1999/xlink" version="1.1" viewBox="-10 0 1034 1024">
  <g transform="matrix(1 0 0 -1 0 819)">
   <path fill="currentColor"
d="M742 -94c-25 0 -62 11 -83 26c-173 115 -407 349 -522 522c-14 21 -25 59 -25 84c0 35 20 83 44 108l18 18c25 24 73 44 108 44s83 -20 108 -44l28 -28c25 -25 44 -73 44 -108c0 -25 -11 -63 -25 -84c54 -64 148 -158 212 -212c21 14 58 24 84 24c34 0 82 -20 107 -44
l28 -28c24 -25 44 -73 44 -108s-20 -83 -44 -108l-18 -18c-25 -24 -73 -44 -108 -44zM281 640c-19 0 -46 -13 -59 -26l-17 -17c-14 -14 -25 -40 -25 -59c0 -14 6 -34 14 -46c110 -167 336 -393 503 -504c12 -8 32 -14 46 -14c19 0 46 11 60 25l18 18c13 13 24 40 24 59
s-12 47 -26 60l-28 28c-14 13 -40 24 -59 24s-46 -11 -60 -24c-5 -5 -16 -10 -24 -10c-7 0 -16 4 -22 8c-79 65 -196 182 -261 261c-4 6 -8 15 -8 22c0 8 5 19 10 24c14 12 25 40 25 60c0 19 -11 45 -25 59l-26 26c-13 14 -40 26 -60 26z" />
  </g>

</svg>
