<?xml version="1.0" standalone="no"?>
<!DOCTYPE svg PUBLIC "-//W3C//DTD SVG 1.1//EN" "http://www.w3.org/Graphics/SVG/1.1/DTD/svg11.dtd" >
<svg xmlns="http://www.w3.org/2000/svg" xmlns:xlink="http://www.w3.org/1999/xlink" version="1.1" viewBox="-10 0 1034 1024">
  <g transform="matrix(1 0 0 -1 0 819)">
   <path fill="currentColor"
d="M901 650c9 10 20 14 31 14c26 0 53 -24 53 -48c0 -8 -3 -17 -10 -24l-561 -627c-8 -9 -20 -16 -32 -16c-10 0 -22 3 -30 10l-289 255c-14 13 -21 27 -21 40c0 23 19 43 44 43c11 0 24 -4 35 -14l255 -226z" />
  </g>

</svg>
