<?xml version="1.0" standalone="no"?>
<!DOCTYPE svg PUBLIC "-//W3C//DTD SVG 1.1//EN" "http://www.w3.org/Graphics/SVG/1.1/DTD/svg11.dtd" >
<svg xmlns="http://www.w3.org/2000/svg" xmlns:xlink="http://www.w3.org/1999/xlink" version="1.1" viewBox="-10 0 1034 1024">
  <g transform="matrix(1 0 0 -1 0 819)">
   <path fill="currentColor"
d="M628 -28c99 34 178 110 212 209l61 -24c-44 -116 -136 -205 -252 -246zM113 444c41 116 132 212 245 256l24 -62c-99 -38 -176 -119 -210 -218zM847 420c-34 106 -117 184 -216 222l21 61c119 -44 215 -140 256 -263zM177 181c38 -96 109 -171 205 -205l-24 -62
c-113 41 -201 130 -242 243zM505 801c60 0 110 -47 110 -108c0 -58 -48 -106 -106 -106c-61 0 -110 48 -110 106c0 61 47 108 106 108zM505 652c24 0 45 17 45 44c0 24 -21 44 -45 44s-45 -20 -45 -44s21 -44 45 -44zM505 27c60 0 110 -48 110 -109
c0 -58 -48 -106 -106 -106c-61 0 -110 48 -110 106c0 61 47 109 106 109zM505 -123c24 0 45 17 45 44c0 24 -21 45 -45 45s-45 -21 -45 -45s21 -44 45 -44zM898 409c58 0 105 -47 105 -105c0 -59 -47 -106 -105 -106s-106 48 -106 106s48 105 106 105zM898 259h4
c22 0 40 22 40 45c0 24 -20 44 -44 44s-45 -20 -45 -44s21 -45 45 -45zM232 300c0 -58 -47 -106 -106 -106c-58 0 -106 48 -106 106s48 106 106 106s106 -48 106 -106zM81 300c0 -24 21 -41 45 -44c24 0 45 20 45 44s-21 45 -45 45s-45 -21 -45 -45z" />
  </g>

</svg>
