<?xml version="1.0" standalone="no"?>
<!DOCTYPE svg PUBLIC "-//W3C//DTD SVG 1.1//EN" "http://www.w3.org/Graphics/SVG/1.1/DTD/svg11.dtd" >
<svg xmlns="http://www.w3.org/2000/svg" xmlns:xlink="http://www.w3.org/1999/xlink" version="1.1" viewBox="-10 0 1034 1024">
  <g transform="matrix(1 0 0 -1 0 819)">
   <path fill="currentColor"
d="M92 -62h458l37 -68h-532c-20 0 -35 14 -35 34c0 223 203 307 448 307c50 0 94 0 143 -10l-44 -61c-31 0 -65 3 -99 3c-193 0 -356 -48 -376 -205zM469 276c-137 0 -251 116 -251 256c0 145 105 273 251 273c141 0 244 -130 244 -273c0 -138 -107 -256 -244 -256zM284 532
c0 -116 83 -198 185 -198s186 82 186 198c0 98 -76 208 -186 208c-109 0 -185 -100 -185 -208zM829 24l41 -41c6 -6 9 -14 9 -23c0 -8 -2 -15 -9 -22c-6 -6 -15 -9 -22 -9c-9 0 -17 4 -22 9l-41 41l-34 -34c-7 -7 -16 -11 -24 -11s-17 4 -24 11c-6 6 -8 12 -8 19
c0 10 5 19 12 26l34 34l-34 34c-6 7 -9 15 -9 23s3 16 9 21s15 8 23 8s16 -3 21 -8l34 -34l38 38c5 5 14 8 23 8c8 0 17 -3 21 -8c5 -6 7 -15 7 -23s-2 -17 -7 -22zM788 -188c-116 0 -211 96 -211 212s95 211 211 211s212 -95 212 -211s-96 -212 -212 -212zM788 170
c-82 0 -150 -68 -150 -150s68 -150 150 -150s151 68 151 150c0 74 -52 132 -119 147c-10 2 -21 3 -32 3z" />
  </g>

</svg>
