<?xml version="1.0" standalone="no"?>
<!DOCTYPE svg PUBLIC "-//W3C//DTD SVG 1.1//EN" "http://www.w3.org/Graphics/SVG/1.1/DTD/svg11.dtd" >
<svg xmlns="http://www.w3.org/2000/svg" xmlns:xlink="http://www.w3.org/1999/xlink" version="1.1" viewBox="-10 0 1044 1024">
  <g transform="matrix(1 0 0 -1 0 819)">
   <path fill="currentColor"
d="M977 596c39 -50 47 -124 47 -289s-8 -237 -47 -287c-7 -9 -21 -21 -32 -26c-37 -27 -206 -40 -407 -40h-22c-209 2 -399 12 -436 40c-11 5 -26 16 -34 25c-35 45 -46 111 -46 250v38c2 166 8 239 45 289c8 9 23 21 34 25c38 27 228 39 437 39c210 0 391 -12 429 -39
c11 -5 25 -16 32 -25zM299 26c106 0 181 79 193 210h-127c-6 -49 -26 -86 -68 -86c-67 0 -80 66 -80 137c0 97 28 147 75 147c41 0 67 -30 71 -83h126c-11 129 -80 205 -203 205c-112 0 -201 -101 -201 -264c0 -164 81 -266 214 -266zM738 26c106 0 180 79 192 210h-127
c-5 -49 -25 -86 -68 -86c-67 0 -79 66 -79 137c0 97 33 147 74 147c42 0 68 -30 72 -83h125c-11 129 -79 205 -202 205c-113 0 -201 -101 -201 -264c0 -164 81 -266 214 -266z" />
  </g>

</svg>
