<?xml version="1.0" standalone="no"?>
<!DOCTYPE svg PUBLIC "-//W3C//DTD SVG 1.1//EN" "http://www.w3.org/Graphics/SVG/1.1/DTD/svg11.dtd" >
<svg xmlns="http://www.w3.org/2000/svg" xmlns:xlink="http://www.w3.org/1999/xlink" version="1.1" viewBox="-10 0 1034 1024">
  <g transform="matrix(1 0 0 -1 0 819)">
   <path fill="currentColor"
d="M512 802c273 0 495 -222 495 -495s-222 -495 -495 -495s-495 222 -495 495s222 495 495 495zM512 -120c236 0 427 191 427 427s-191 427 -427 427s-427 -191 -427 -427s191 -427 427 -427zM294 430c0 36 28 65 64 65s66 -29 66 -65s-30 -65 -66 -65s-64 29 -64 65z
M591 430c0 36 28 65 64 65s66 -29 66 -65s-30 -65 -66 -65s-64 29 -64 65zM632 48c-50 0 -106 30 -151 61c-25 17 -48 21 -75 21c-38 0 -75 -21 -102 -45c-7 -5 -16 -7 -24 -7s-16 2 -21 7c-5 7 -7 16 -7 24s2 16 7 21c41 38 92 61 147 61s105 -22 150 -55
c20 -14 51 -27 79 -27c34 0 66 17 86 44c7 7 18 14 28 14c6 0 11 -2 16 -7c7 -7 11 -16 11 -25c0 -8 -3 -16 -8 -23c-36 -44 -79 -64 -136 -64z" />
  </g>

</svg>
