<?xml version="1.0" standalone="no"?>
<!DOCTYPE svg PUBLIC "-//W3C//DTD SVG 1.1//EN" "http://www.w3.org/Graphics/SVG/1.1/DTD/svg11.dtd" >
<svg xmlns="http://www.w3.org/2000/svg" xmlns:xlink="http://www.w3.org/1999/xlink" version="1.1" viewBox="-10 0 1034 1024">
  <g transform="matrix(1 0 0 -1 0 819)">
   <path fill="currentColor"
d="M343 -34c-19 0 -34 15 -34 34l16 469c0 19 15 35 34 35s34 -16 34 -35l-16 -469c0 -19 -15 -34 -34 -34zM512 -34c-19 0 -34 15 -34 34v471c0 19 15 34 34 34s34 -15 34 -34v-471c0 -19 -15 -34 -34 -34zM681 -34c-19 0 -34 15 -34 34l-16 469c0 19 15 35 34 35
s34 -16 34 -35l16 -469c0 -19 -15 -34 -34 -34zM941 685c19 0 34 -15 34 -34s-15 -34 -34 -34h-102l31 -714c0 -49 -40 -88 -88 -88h-540c-48 0 -88 39 -88 88l32 714h-102c-19 0 -34 15 -34 34s15 34 34 34h257v12c0 56 46 102 103 102h136c57 0 103 -46 103 -102v-12h258z
M410 697v-12h204v12c0 19 -15 34 -34 34h-136c-19 0 -34 -15 -34 -34zM782 -117c10 0 19 8 19 18l-31 717h-516l-31 -717c0 -10 9 -18 19 -18h540z" />
  </g>

</svg>
