<?xml version="1.0" standalone="no"?>
<!DOCTYPE svg PUBLIC "-//W3C//DTD SVG 1.1//EN" "http://www.w3.org/Graphics/SVG/1.1/DTD/svg11.dtd" >
<svg xmlns="http://www.w3.org/2000/svg" xmlns:xlink="http://www.w3.org/1999/xlink" version="1.1" viewBox="-10 0 1034 1024">
  <g transform="matrix(1 0 0 -1 0 819)">
   <path fill="currentColor"
d="M928 707c4 -4 7 -12 7 -18s-4 -14 -8 -18l-29 -28c13 -12 23 -34 24 -51v-494c-1 -35 -31 -65 -67 -66h-223v-59h76c13 0 24 -11 24 -24s-11 -24 -24 -24h-392c-13 0 -24 11 -24 24s11 24 24 24h78v60h-128l-131 -126c-4 -4 -12 -8 -18 -8s-14 4 -18 8s-8 12 -8 18
s4 14 8 18l92 89h-20c-37 0 -68 30 -69 66v494c2 36 32 66 69 66h669l52 49c4 4 12 8 18 8s14 -4 18 -8zM171 79h68l552 532h-620c-11 0 -19 -9 -19 -19v-494c0 -10 8 -19 19 -19zM586 -28l-1 60h-146v-60h147zM874 592c0 7 -5 14 -11 17l-551 -530h543c11 0 19 9 19 19v494
z" />
  </g>

</svg>
