<?xml version="1.0" standalone="no"?>
<!DOCTYPE svg PUBLIC "-//W3C//DTD SVG 1.1//EN" "http://www.w3.org/Graphics/SVG/1.1/DTD/svg11.dtd" >
<svg xmlns="http://www.w3.org/2000/svg" xmlns:xlink="http://www.w3.org/1999/xlink" version="1.1" viewBox="-10 0 1034 1024">
  <g transform="matrix(1 0 0 -1 0 819)">
   <path fill="currentColor"
d="M855 674c36 -1 66 -31 67 -67v-491c0 -37 -30 -67 -67 -68h-223v-62h73c13 0 23 -11 23 -24s-10 -23 -23 -23h-386c-13 0 -23 10 -23 23s10 24 23 24h75v60h-223c-38 0 -69 30 -69 68v493c1 37 32 67 69 67h684zM585 -12v60h-146v-60h146zM876 607c0 11 -9 19 -19 19
h-686c-11 0 -19 -8 -19 -19v-493c0 -10 8 -19 19 -19h684c11 0 19 9 19 19z" />
  </g>

</svg>
