<?xml version="1.0" standalone="no"?>
<!DOCTYPE svg PUBLIC "-//W3C//DTD SVG 1.1//EN" "http://www.w3.org/Graphics/SVG/1.1/DTD/svg11.dtd" >
<svg xmlns="http://www.w3.org/2000/svg" xmlns:xlink="http://www.w3.org/1999/xlink" version="1.1" viewBox="-10 0 1034 1024">
  <g transform="matrix(1 0 0 -1 0 819)">
   <path fill="currentColor"
d="M990 792c5 -5 10 -16 10 -24s-5 -19 -10 -24l-135 -135l24 -24c14 -13 25 -40 25 -60v-645c0 -47 -38 -85 -85 -85h-614c-44 0 -82 36 -84 80l-53 -53c-6 -5 -16 -10 -24 -10s-19 5 -24 10c-6 5 -10 16 -10 24s4 19 10 24l100 101v763c0 47 38 85 85 85h440l162 -163
l135 136c5 6 16 10 24 10s18 -4 24 -10zM663 713v-110c0 -13 10 -23 23 -23h43l34 34zM182 734v-700l141 138c-1 3 -2 8 -2 11c0 17 13 30 30 30c3 0 8 -1 11 -2l121 121v85c0 17 14 31 30 31c17 0 31 -14 31 -31v-24l125 125c-37 8 -68 45 -68 83v156h-396
c-13 0 -23 -10 -23 -23zM482 236l-72 -71l72 -71v142zM842 517h-79l-221 -221v-202l111 110c5 5 14 9 21 9s17 -4 22 -9s9 -14 9 -21s-4 -17 -9 -22l-184 -183l-144 144l-186 -186v-56c0 -13 10 -23 23 -23h614c13 0 23 10 23 23v637z" />
  </g>

</svg>
