<?xml version="1.0" standalone="no"?>
<!DOCTYPE svg PUBLIC "-//W3C//DTD SVG 1.1//EN" "http://www.w3.org/Graphics/SVG/1.1/DTD/svg11.dtd" >
<svg xmlns="http://www.w3.org/2000/svg" xmlns:xlink="http://www.w3.org/1999/xlink" version="1.1" viewBox="-10 0 1051 1024">
  <g transform="matrix(1 0 0 -1 0 819)">
   <path fill="currentColor"
d="M627 440c-1 3 -2 9 -2 13v208c3 14 18 26 33 26c14 0 29 -12 33 -26v-128l277 276c5 10 18 17 29 17c19 0 34 -15 34 -34c0 -11 -7 -24 -17 -29l-276 -277h128c2 0 6 1 8 1c19 0 34 -15 34 -34s-15 -34 -34 -34c-2 0 -6 0 -8 1h-208c-12 0 -26 9 -31 20zM56 -195
c-4 -3 -12 -5 -17 -5c-19 0 -34 15 -34 34c0 5 2 13 5 17l276 278h-128c-2 0 -6 -1 -8 -1c-19 0 -34 15 -34 34s15 34 34 34c2 0 6 0 8 -1h207c19 0 34 -15 34 -34v-208c1 -2 1 -6 1 -8c0 -19 -15 -34 -34 -34s-34 15 -34 34c0 2 1 6 1 8v128zM286 486l-276 277
c-3 4 -5 12 -5 17c0 19 15 34 34 34c5 0 13 -2 17 -5l278 -276v128c4 14 19 26 33 26c15 0 30 -12 33 -26v-207c0 -19 -15 -34 -34 -34h-208c-14 3 -26 18 -26 33c0 14 12 29 26 33h128zM658 -80c-17 1 -32 15 -33 32v208c0 19 15 34 34 34h208c3 1 6 1 9 1
c18 0 34 -15 34 -34s-16 -34 -34 -34c-3 0 -6 1 -9 1h-128l276 -277c3 -4 5 -12 5 -17c0 -19 -15 -34 -34 -34c-5 0 -13 2 -17 5l-277 276v-127c0 -19 -15 -34 -34 -34z" />
  </g>

</svg>
