<?xml version="1.0" standalone="no"?>
<!DOCTYPE svg PUBLIC "-//W3C//DTD SVG 1.1//EN" "http://www.w3.org/Graphics/SVG/1.1/DTD/svg11.dtd" >
<svg xmlns="http://www.w3.org/2000/svg" xmlns:xlink="http://www.w3.org/1999/xlink" version="1.1" viewBox="-10 0 1034 1024">
  <g transform="matrix(1 0 0 -1 0 819)">
   <path fill="currentColor"
d="M594 -34c5 5 11 8 18 8s14 -3 19 -8c8 -8 13 -18 13 -27c0 -6 -2 -12 -6 -18l-102 -102c-5 -7 -12 -11 -20 -11s-17 4 -24 11l-106 109c-5 5 -7 12 -7 18c0 10 5 20 14 26c6 4 12 6 18 6c9 0 18 -4 26 -12l48 -48v246c0 17 13 27 30 27s31 -10 31 -27v-246zM631 645
c-5 -5 -12 -7 -19 -7s-13 2 -18 7l-48 48v-246c0 -17 -14 -27 -31 -27s-30 10 -30 27v246l-48 -48c-8 -8 -17 -12 -27 -12c-6 0 -12 1 -17 5c-9 6 -14 17 -14 27c0 6 2 12 7 17l106 110c7 7 15 10 22 10c8 0 16 -4 22 -10l102 -103c4 -6 6 -11 6 -17c0 -9 -5 -19 -13 -27z
M847 188c-5 5 -7 11 -7 18s2 14 7 19l47 48h-245c-17 0 -28 14 -28 31s11 30 28 30h245l-47 48c-8 8 -13 18 -13 27c0 6 2 12 6 17c6 9 17 13 27 13c6 0 12 -2 17 -6l109 -106c7 -7 10 -15 10 -22c0 -8 -3 -15 -10 -22l-102 -102c-4 -4 -10 -6 -16 -6c-9 0 -20 5 -28 13z
M177 426c5 -5 7 -11 7 -18s-2 -14 -7 -19l-47 -48h245c17 0 28 -14 28 -31s-11 -30 -28 -30h-245l47 -48c8 -8 13 -18 13 -27c0 -6 -2 -12 -6 -17c-6 -9 -17 -13 -27 -13c-6 0 -12 2 -17 6c-4 3 -109 106 -109 106c-7 7 -10 14 -10 21c0 8 4 17 10 23l102 102c5 5 10 7 16 7
c9 0 19 -5 28 -14z" />
  </g>

</svg>
