<?xml version="1.0" standalone="no"?>
<!DOCTYPE svg PUBLIC "-//W3C//DTD SVG 1.1//EN" "http://www.w3.org/Graphics/SVG/1.1/DTD/svg11.dtd" >
<svg xmlns="http://www.w3.org/2000/svg" xmlns:xlink="http://www.w3.org/1999/xlink" version="1.1" viewBox="-10 0 1034 1024">
  <g transform="matrix(1 0 0 -1 0 819)">
   <path fill="currentColor"
d="M79 -75c0 0 266 263 269 266c6 5 14 8 21 8c9 0 18 -4 24 -11c5 -6 7 -14 7 -21c0 -8 -3 -16 -11 -24l-266 -266h126c21 0 35 -8 35 -31c0 -17 -12 -31 -35 -31h-201c-17 0 -31 14 -31 31v202c0 17 18 27 32 27s30 -10 30 -27v-123zM126 740l263 -262c6 -6 9 -13 9 -20
c0 -8 -4 -15 -9 -21c-8 -9 -17 -13 -26 -13c-6 0 -13 2 -18 6l-266 266v-126c0 -17 -15 -30 -32 -30c-14 0 -30 14 -30 30v201c0 17 14 31 31 31h201c18 0 28 -16 28 -30c0 -17 -11 -32 -28 -32h-123zM973 71c17 0 34 -11 34 -27v-201c0 -17 -14 -31 -31 -31h-201
c-19 0 -29 18 -29 32c0 13 10 30 29 30h123l-273 273c-7 6 -10 14 -10 22c0 9 4 18 12 24c6 5 13 7 19 7c9 0 17 -4 25 -12l271 -270v123c0 17 14 30 31 30zM635 478l263 262h-123c-20 0 -29 15 -29 32c0 14 10 30 29 30h201c17 0 31 -14 31 -31v-201c0 -17 -13 -28 -32 -28
c-16 0 -30 11 -30 28v126l-263 -263c-6 -6 -13 -8 -20 -8c-10 0 -21 4 -27 12c-6 7 -9 14 -9 21c0 6 2 13 9 20z" />
  </g>

</svg>
