<?xml version="1.0" standalone="no"?>
<!DOCTYPE svg PUBLIC "-//W3C//DTD SVG 1.1//EN" "http://www.w3.org/Graphics/SVG/1.1/DTD/svg11.dtd" >
<svg xmlns="http://www.w3.org/2000/svg" xmlns:xlink="http://www.w3.org/1999/xlink" version="1.1" viewBox="-10 0 1034 1024">
  <g transform="matrix(1 0 0 -1 0 819)">
   <path fill="currentColor"
d="M956 -137c2 -8 4 -17 4 -25s-2 -15 -8 -19c-5 -4 -9 -5 -14 -5c-9 0 -19 6 -30 15c-33 25 -65 48 -96 72c-10 -3 -24 -4 -34 -4c-130 0 -232 86 -232 192v6l55 14v-20c0 -75 78 -137 177 -137c15 0 27 4 39 4c7 0 15 -2 23 -7l44 -35l-10 38c0 14 7 24 17 31
c38 24 65 63 65 107c0 76 -71 120 -161 135l38 51h3c102 -20 175 -97 175 -186c0 -58 -31 -110 -79 -141c8 -29 17 -57 24 -86zM416 802c218 0 393 -144 393 -318s-181 -317 -399 -317h-4c-24 0 -47 4 -71 7h-4l-181 -137c-3 -3 -10 -6 -13 -6c-10 0 -18 7 -18 17l55 170
c0 3 -4 11 -7 14c-89 51 -150 147 -150 249c0 177 177 321 399 321zM416 235c181 0 332 112 332 249s-148 250 -332 250s-331 -113 -331 -250c0 -79 48 -153 120 -191c27 -14 41 -40 41 -71c-2 -14 -5 -27 -10 -38l54 38c14 10 31 17 48 17c20 0 68 -4 78 -4z" />
  </g>

</svg>
