<?xml version="1.0" standalone="no"?>
<!DOCTYPE svg PUBLIC "-//W3C//DTD SVG 1.1//EN" "http://www.w3.org/Graphics/SVG/1.1/DTD/svg11.dtd" >
<svg xmlns="http://www.w3.org/2000/svg" xmlns:xlink="http://www.w3.org/1999/xlink" version="1.1" viewBox="-10 0 1034 1024">
  <g transform="matrix(1 0 0 -1 0 819)">
   <path fill="currentColor"
d="M829 590c55 0 103 -47 103 -102v-439c0 -130 -106 -234 -236 -234h-191c-96 0 -174 72 -215 137c-75 119 -177 294 -177 294c-12 27 -17 50 -17 68c0 28 11 46 23 58c17 20 42 27 69 27c31 0 53 -26 71 -51l48 -68v321c0 31 10 61 34 85c18 18 42 28 67 28
c13 0 26 -2 39 -8c0 51 48 96 103 96s102 -41 102 -96c10 3 23 7 37 7c55 0 103 -47 103 -102v-28c10 3 23 7 37 7zM860 49v439c0 20 -17 37 -37 37s-38 -17 -38 -37v-178c0 -18 -13 -34 -31 -34c-17 0 -30 17 -30 34v301c0 20 -18 37 -38 37s-45 -16 -45 -37v-243
c0 -16 -15 -27 -29 -27c-17 0 -32 12 -32 27v332c0 20 -17 34 -37 37c-20 0 -38 -17 -38 -37v-332c0 -16 -13 -27 -27 -27c-17 0 -34 10 -34 27v243c0 17 -11 30 -28 37c-3 2 -6 3 -10 3c-9 0 -20 -6 -27 -13c-10 -10 -14 -27 -14 -41v-406c0 -14 -7 -24 -17 -31
c-6 -4 -14 -6 -21 -6c-12 0 -24 5 -30 16l-96 140c-7 10 -13 21 -24 21c-15 0 -22 -8 -22 -21c0 -10 4 -23 12 -37c0 0 99 -171 178 -290c31 -48 92 -106 160 -106h191c96 0 164 76 164 172z" />
  </g>

</svg>
