<?xml version="1.0" standalone="no"?>
<!DOCTYPE svg PUBLIC "-//W3C//DTD SVG 1.1//EN" "http://www.w3.org/Graphics/SVG/1.1/DTD/svg11.dtd" >
<svg xmlns="http://www.w3.org/2000/svg" xmlns:xlink="http://www.w3.org/1999/xlink" version="1.1" viewBox="-10 0 1034 1024">
  <g transform="matrix(1 0 0 -1 0 819)">
   <path fill="currentColor"
d="M512 802c273 0 495 -222 495 -495s-222 -495 -495 -495s-495 222 -495 495s222 495 495 495zM512 -123c239 0 430 191 430 430s-191 430 -430 430s-430 -191 -430 -430s191 -430 430 -430zM294 430c0 36 28 65 64 65s66 -29 66 -65s-30 -65 -66 -65s-64 29 -64 65z
M591 430c0 36 28 65 64 65s66 -29 66 -65s-30 -65 -66 -65s-64 29 -64 65zM509 13h-4c-113 0 -218 65 -273 164c-2 4 -4 10 -4 16c0 11 5 24 17 29c5 2 9 3 14 3c12 0 25 -6 31 -17c44 -79 126 -130 215 -130c92 0 175 51 219 130c4 9 21 17 35 17c5 0 9 -1 13 -3
c9 -6 14 -18 14 -29c0 -6 -1 -11 -4 -16c-58 -99 -160 -164 -273 -164z" />
  </g>

</svg>
