<?xml version="1.0" standalone="no"?>
<!DOCTYPE svg PUBLIC "-//W3C//DTD SVG 1.1//EN" "http://www.w3.org/Graphics/SVG/1.1/DTD/svg11.dtd" >
<svg xmlns="http://www.w3.org/2000/svg" xmlns:xlink="http://www.w3.org/1999/xlink" version="1.1" viewBox="-10 0 1044 1024">
  <g transform="matrix(1 0 0 -1 0 819)">
   <path fill="currentColor"
d="M443 119c0 26 22 48 48 48c27 0 49 -22 49 -48s-22 -48 -49 -48c-26 0 -48 22 -48 48zM512 -205c-283 0 -512 229 -512 512s229 512 512 512s512 -229 512 -512s-229 -512 -512 -512zM512 755c-247 0 -448 -201 -448 -448c0 -248 201 -449 448 -449s448 201 448 449
c0 247 -201 448 -448 448zM458 219v20c0 18 5 42 13 57c9 16 29 37 44 47c15 11 36 31 48 46c7 11 11 27 11 42c0 12 -8 29 -18 37c-11 8 -31 14 -45 14c-19 0 -43 -3 -60 -8l-23 -9c-4 -1 -7 -2 -11 -2c-12 0 -23 7 -28 17c-2 4 -3 10 -3 14c0 11 9 24 20 29
c30 12 76 20 111 20c28 0 69 -14 91 -31c20 -17 36 -52 36 -78c0 -16 -2 -33 -7 -47c-4 -10 -14 -25 -21 -34c-12 -13 -34 -32 -48 -43c-12 -9 -29 -25 -39 -37c-6 -11 -9 -28 -9 -40v-14h-62z" />
  </g>

</svg>
