<?xml version="1.0" standalone="no"?>
<!DOCTYPE svg PUBLIC "-//W3C//DTD SVG 1.1//EN" "http://www.w3.org/Graphics/SVG/1.1/DTD/svg11.dtd" >
<svg xmlns="http://www.w3.org/2000/svg" xmlns:xlink="http://www.w3.org/1999/xlink" version="1.1" viewBox="-10 0 1034 1024">
  <g transform="matrix(1 0 0 -1 0 819)">
   <path fill="currentColor"
d="M481 -188c-10 0 -20 4 -30 14l-427 486l430 480c7 9 18 13 29 13c10 0 21 -3 29 -10c9 -7 13 -18 13 -29c0 -10 -3 -21 -10 -29l-385 -425l382 -435c7 -8 10 -18 10 -27c0 -10 -4 -21 -13 -28c-7 -7 -18 -10 -28 -10z" />
  </g>

</svg>
