<?xml version="1.0" standalone="no"?>
<!DOCTYPE svg PUBLIC "-//W3C//DTD SVG 1.1//EN" "http://www.w3.org/Graphics/SVG/1.1/DTD/svg11.dtd" >
<svg xmlns="http://www.w3.org/2000/svg" xmlns:xlink="http://www.w3.org/1999/xlink" version="1.1" viewBox="-10 0 1034 1024">
  <g transform="matrix(1 0 0 -1 0 819)">
   <path fill="currentColor"
d="M403 14l-58 29l269 538l58 -29zM703 802c60 0 109 -48 109 -109s-48 -110 -109 -110s-109 49 -109 110s49 109 109 109zM703 648c26 0 48 21 48 45s-21 44 -48 44c-24 0 -44 -20 -44 -44s20 -45 44 -45zM321 31c58 0 109 -49 109 -110s-48 -109 -109 -109
s-109 48 -109 109s48 110 109 110zM321 -123c24 0 44 20 44 44c0 25 -20 45 -44 45c-27 0 -48 -21 -48 -45s21 -44 48 -44z" />
  </g>

</svg>
