<?xml version="1.0" standalone="no"?>
<!DOCTYPE svg PUBLIC "-//W3C//DTD SVG 1.1//EN" "http://www.w3.org/Graphics/SVG/1.1/DTD/svg11.dtd" >
<svg xmlns="http://www.w3.org/2000/svg" xmlns:xlink="http://www.w3.org/1999/xlink" version="1.1" viewBox="-10 0 1211 1024">
  <g transform="matrix(1 0 0 -1 0 819)">
   <path fill="currentColor"
d="M1079 312c77 -54 112 -136 112 -218c0 -140 -102 -281 -269 -282c-18 0 -32 14 -32 32v487c0 18 14 31 33 31c26 0 67 -7 91 -16c-14 216 -201 391 -417 391c-209 0 -395 -169 -416 -376c25 9 66 16 92 16c18 0 32 -14 32 -31v-487c0 -18 -14 -32 -32 -32
c-151 2 -273 125 -273 276c0 77 51 177 114 223c5 261 221 474 482 476c269 -2 483 -221 483 -490z" />
  </g>

</svg>
