<?xml version="1.0" standalone="no"?>
<!DOCTYPE svg PUBLIC "-//W3C//DTD SVG 1.1//EN" "http://www.w3.org/Graphics/SVG/1.1/DTD/svg11.dtd" >
<svg xmlns="http://www.w3.org/2000/svg" xmlns:xlink="http://www.w3.org/1999/xlink" version="1.1" viewBox="-10 0 1034 1024">
  <g transform="matrix(1 0 0 -1 0 819)">
   <path fill="currentColor"
d="M911 310c62 -44 96 -109 96 -180c0 -123 -99 -229 -225 -229c-14 0 -24 10 -24 24v402c0 14 10 24 24 24c24 0 51 -6 75 -13c-10 170 -140 307 -311 324c-11 1 -21 1 -31 1c-178 0 -332 -135 -348 -315c24 7 51 14 75 14c14 0 24 -11 24 -24v-403c0 -14 -10 -24 -24 -24
c-75 0 -143 34 -184 92c-30 41 -44 88 -44 134c0 71 33 142 95 187c7 219 185 393 403 396c222 -3 399 -184 399 -410zM215 -34v344c-72 -10 -133 -68 -143 -143c-2 -10 -3 -20 -3 -30c0 -81 60 -156 146 -171zM809 -51c75 17 133 71 143 150c2 10 3 20 3 30
c0 81 -60 156 -146 171v-351z" />
  </g>

</svg>
