<?xml version="1.0" standalone="no"?>
<!DOCTYPE svg PUBLIC "-//W3C//DTD SVG 1.1//EN" "http://www.w3.org/Graphics/SVG/1.1/DTD/svg11.dtd" >
<svg xmlns="http://www.w3.org/2000/svg" xmlns:xlink="http://www.w3.org/1999/xlink" preserveAspectRatio="xMidYMid meet" viewBox="0 0 20 20" style="color: white;"><g fill="none"><path d="M8.5 11.25a.75.75 0 1 0 0-1.5a.75.75 0 0 0 0 1.5z" fill="currentColor"></path><path d="M11 3.5a.5.5 0 0 0-.576-.494l-7 1.07A.5.5 0 0 0 3 4.57v10.86a.5.5 0 0 0 .424.494l7 1.071a.5.5 0 0 0 .576-.494V10h5.172l-.997.874a.5.5 0 0 0 .658.752l1.996-1.75a.5.5 0 0 0 0-.752l-1.996-1.75a.499.499 0 1 0-.658.752l.997.874H11V3.5zm-1 .582V15.92L4 15V4.999l6-.917z" fill="currentColor"></path><path d="M12.5 16H12v-5h1v4.5a.5.5 0 0 1-.5.5z" fill="currentColor"></path><path d="M12 8V4h.5a.5.5 0 0 1 .5.5V8h-1z" fill="currentColor"></path></g></svg>
