<?xml version="1.0" standalone="no"?>
<!DOCTYPE svg PUBLIC "-//W3C//DTD SVG 1.1//EN" "http://www.w3.org/Graphics/SVG/1.1/DTD/svg11.dtd" >
<svg xmlns="http://www.w3.org/2000/svg" xmlns:xlink="http://www.w3.org/1999/xlink" version="1.1" viewBox="-10 0 1034 1024">
  <g transform="matrix(1 0 0 -1 0 819)">
   <path fill="currentColor"
d="M17 307c0 60 49 109 109 109c61 0 110 -49 110 -109s-49 -109 -110 -109c-60 0 -109 49 -109 109zM403 307c0 60 49 109 109 109s109 -49 109 -109s-49 -109 -109 -109s-109 49 -109 109zM788 307c0 60 49 109 110 109c60 0 109 -49 109 -109s-49 -109 -109 -109
c-61 0 -110 49 -110 109z" />
  </g>

</svg>
