<?xml version="1.0" standalone="no"?>
<!DOCTYPE svg PUBLIC "-//W3C//DTD SVG 1.1//EN" "http://www.w3.org/Graphics/SVG/1.1/DTD/svg11.dtd" >
<svg xmlns="http://www.w3.org/2000/svg" xmlns:xlink="http://www.w3.org/1999/xlink" version="1.1" viewBox="-10 0 1044 1024">
  <g transform="matrix(1 0 0 -1 0 819)">
   <path fill="currentColor"
d="M956 736c37 0 68 -30 68 -68v-522c0 -37 -31 -68 -68 -68h-151v-151c0 -38 -31 -68 -69 -68h-668c-37 0 -68 30 -68 68v522c0 37 31 68 68 68h151v151c0 38 31 68 69 68h668zM753 449c0 9 -7 17 -17 17h-668c-9 0 -17 -8 -17 -17v-524c0 -9 4 -15 11 -15h674
c10 0 17 7 17 17v522zM973 146v522c0 10 -8 17 -17 17h-668c-10 0 -17 -7 -17 -17v-151h465c38 0 69 -31 69 -68v-320h151c9 0 17 8 17 17zM153 37c-15 0 -26 12 -26 26c0 4 2 11 4 14c77 115 135 168 190 173c35 0 78 -19 100 -45c3 -3 8 -6 16 -6c18 0 51 13 99 47
c29 21 73 58 98 83c4 4 12 7 18 7c14 0 25 -11 25 -26c0 -5 -3 -13 -7 -17c-27 -27 -74 -66 -104 -88c-54 -38 -97 -57 -131 -57c-20 0 -37 7 -51 20c-12 16 -38 30 -58 30c-37 -4 -88 -54 -152 -150c-4 -6 -13 -11 -21 -11z" />
  </g>

</svg>
