<?xml version="1.0" standalone="no"?>
<!DOCTYPE svg PUBLIC "-//W3C//DTD SVG 1.1//EN" "http://www.w3.org/Graphics/SVG/1.1/DTD/svg11.dtd" >
<svg xmlns="http://www.w3.org/2000/svg" xmlns:xlink="http://www.w3.org/1999/xlink" version="1.1" viewBox="-10 0 1034 1024">
  <g transform="matrix(1 0 0 -1 0 819)">
   <path fill="currentColor"
d="M364 120l-4 3l-67 -67c56 -56 131 -88 212 -88h14c166 0 297 135 297 297v17c3 16 18 26 34 26c3 0 6 0 8 -1c18 -4 25 -17 25 -42c0 -191 -145 -364 -336 -364v-39h212c14 0 28 -18 28 -34c0 -18 -11 -33 -28 -33h-494c-16 0 -28 19 -28 33c0 21 13 38 31 38h212v38
c-88 0 -233 106 -233 106l-137 -135c-8 -8 -18 -12 -26 -12c-17 0 -31 14 -31 33c0 11 5 24 18 37l130 130c-39 60 -60 131 -60 202c0 8 14 20 25 24c3 1 5 1 8 1c16 0 34 -10 34 -25c0 -53 15 -106 43 -152l70 67c-14 28 -21 56 -21 88v339c0 56 22 109 64 148
c39 42 92 64 148 64s108 -23 145 -64c46 -51 63 -92 63 -148v-25l180 181c10 10 21 14 31 14c19 0 34 -15 34 -33c0 -10 -4 -20 -15 -31l-226 -226v-219c0 -117 -95 -212 -212 -212c-56 0 -109 25 -148 64zM614 169c28 28 39 75 39 103v148l-247 -247l4 -4
c28 -28 63 -42 102 -42s77 14 102 42zM371 272c0 -18 7 -43 7 -43l282 283v92c0 39 -14 77 -42 102c-28 28 -63 42 -102 42s-78 -14 -103 -42c-28 -25 -42 -60 -42 -99v-335z" />
  </g>

</svg>
