<?xml version="1.0" standalone="no"?>
<!DOCTYPE svg PUBLIC "-//W3C//DTD SVG 1.1//EN" "http://www.w3.org/Graphics/SVG/1.1/DTD/svg11.dtd" >
<svg xmlns="http://www.w3.org/2000/svg" xmlns:xlink="http://www.w3.org/1999/xlink" version="1.1" viewBox="-10 0 1044 1024">
  <g transform="matrix(1 0 0 -1 0 819)">
   <path fill="currentColor"
d="M378 34c0 74 59 133 132 133c74 0 133 -59 133 -133c0 -73 -59 -133 -133 -133c-73 0 -132 60 -132 133zM248 228c-3 7 -5 14 -5 21c0 13 6 24 17 31c64 40 177 74 252 75c74 -1 185 -34 248 -73c14 -9 19 -22 19 -34c0 -9 -3 -17 -7 -21c-7 -7 -19 -14 -30 -14
c-6 0 -11 1 -16 5c-54 34 -150 63 -214 64c-64 -1 -160 -31 -214 -65c-5 -4 -11 -5 -17 -5c-13 0 -27 7 -33 16zM845 353c-83 56 -233 101 -334 101s-251 -45 -335 -101c-6 -4 -13 -6 -20 -6c-11 0 -22 5 -29 15c-5 6 -7 14 -7 21c0 13 7 26 17 32c94 62 262 113 375 113
s281 -51 375 -113c10 -6 16 -19 16 -31c0 -8 -2 -15 -7 -21c-7 -10 -17 -15 -29 -15c-7 0 -15 2 -22 5zM964 477c-109 89 -312 162 -454 162c-140 0 -341 -71 -450 -160c-7 -5 -16 -8 -25 -8s-19 4 -26 12c-6 7 -9 16 -9 25c0 11 5 22 13 29c120 98 342 177 497 177
c156 0 381 -81 501 -180c8 -7 13 -18 13 -28c0 -9 -3 -18 -9 -25c-7 -8 -17 -13 -27 -13c-9 0 -17 3 -24 9z" />
  </g>

</svg>
