<?xml version="1.0" standalone="no"?>
<!DOCTYPE svg PUBLIC "-//W3C//DTD SVG 1.1//EN" "http://www.w3.org/Graphics/SVG/1.1/DTD/svg11.dtd" >
<svg xmlns="http://www.w3.org/2000/svg" xmlns:xlink="http://www.w3.org/1999/xlink" version="1.1" viewBox="-10 0 1034 1024">
  <g transform="matrix(1 0 0 -1 0 819)">
   <path fill="currentColor"
d="M537 74c-16 0 -29 13 -29 29v102h-102c-15 1 -26 14 -26 28c0 15 11 28 26 29h102v103c1 14 14 26 29 26c14 0 27 -12 29 -26v-103h102c14 -1 26 -14 26 -29c0 -14 -12 -27 -26 -28h-102v-103c-1 -15 -14 -28 -29 -28zM905 585c14 -13 25 -40 25 -60v-645
c0 -47 -38 -85 -85 -85h-614c-48 0 -85 38 -85 86v853c0 47 38 85 85 85h440zM689 713v-110c0 -13 10 -23 23 -23h112zM845 -143c13 0 23 10 23 23v636h-156c-47 0 -85 38 -85 85v155h-396c-13 0 -23 -11 -23 -23v-853c0 -13 10 -23 23 -23h614z" />
  </g>

</svg>
