<?xml version="1.0" standalone="no"?>
<!DOCTYPE svg PUBLIC "-//W3C//DTD SVG 1.1//EN" "http://www.w3.org/Graphics/SVG/1.1/DTD/svg11.dtd" >
<svg xmlns="http://www.w3.org/2000/svg" xmlns:xlink="http://www.w3.org/1999/xlink" version="1.1" viewBox="-10 0 1034 1024">
  <g transform="matrix(1 0 0 -1 0 819)">
   <path fill="currentColor"
d="M966 737c2 1 6 2 9 2c19 0 34 -16 34 -35c0 -18 -15 -34 -34 -34c-3 0 -7 1 -9 2h-717c-2 -1 -6 -2 -9 -2c-19 0 -34 16 -34 34c0 19 15 35 34 35c3 0 7 -1 9 -2h717zM727 458c14 -4 25 -19 25 -33c0 -15 -11 -30 -25 -33h-478c-2 -1 -6 -2 -9 -2c-19 0 -34 16 -34 35
c0 18 15 34 34 34c3 0 7 -1 9 -1h478zM79 771c36 0 66 -30 66 -67c0 -36 -30 -66 -67 -66s-66 30 -66 66c0 37 29 67 67 67zM10 424c0 37 30 67 66 67c37 0 67 -30 67 -67c0 -36 -30 -66 -67 -66c-36 0 -66 30 -66 66zM10 151c0 37 30 67 66 67c37 0 67 -30 67 -67
s-30 -67 -67 -67c-36 0 -66 30 -66 67zM488 -96c14 -4 26 -19 26 -33c0 -15 -12 -30 -26 -33h-238c-3 -1 -7 -2 -9 -2c-19 0 -35 16 -35 35c0 18 16 34 35 34c2 0 6 -1 9 -1h238zM10 -129c0 37 30 66 66 66c37 0 67 -29 67 -66s-30 -67 -67 -67c-36 0 -66 30 -66 67z
M864 184c2 1 6 1 9 1c18 0 34 -15 34 -34s-16 -34 -34 -34c-3 0 -7 1 -9 1h-615c-2 0 -6 -1 -9 -1c-19 0 -34 15 -34 34s15 34 34 34c3 0 7 0 9 -1h615z" />
  </g>

</svg>
