<?xml version="1.0" standalone="no"?>
<!DOCTYPE svg PUBLIC "-//W3C//DTD SVG 1.1//EN" "http://www.w3.org/Graphics/SVG/1.1/DTD/svg11.dtd" >
<svg xmlns="http://www.w3.org/2000/svg" xmlns:xlink="http://www.w3.org/1999/xlink" version="1.1" viewBox="-10 0 1034 1024">
  <g transform="matrix(1 0 0 -1 0 819)">
   <path fill="currentColor"
d="M864 68v481h64v-481h-64zM290 655v65h444v-65h-444zM99 68v481h65v-481h-65zM290 -109v64h444v-64h-444zM130 802c61 0 112 -52 112 -113s-51 -112 -112 -112s-113 51 -113 112s52 113 113 113zM130 642c27 0 47 20 47 47s-20 48 -47 48s-48 -21 -48 -48s21 -47 48 -47z
M894 37c61 0 113 -51 113 -112s-52 -113 -113 -113s-112 52 -112 113s51 112 112 112zM894 -123c27 0 48 21 48 48s-21 47 -48 47s-47 -20 -47 -47s20 -48 47 -48zM130 37c61 0 112 -51 112 -112s-51 -113 -112 -113s-113 52 -113 113s52 112 113 112zM130 -123
c27 0 47 21 47 48s-20 47 -47 47s-48 -20 -48 -47s21 -48 48 -48zM894 802c61 0 113 -52 113 -113s-52 -112 -113 -112s-112 51 -112 112s51 113 112 113zM894 642c28 0 48 20 48 47s-21 48 -48 48s-47 -21 -47 -48s20 -47 47 -47z" />
  </g>

</svg>
