<?xml version="1.0" standalone="no"?>
<!DOCTYPE svg PUBLIC "-//W3C//DTD SVG 1.1//EN" "http://www.w3.org/Graphics/SVG/1.1/DTD/svg11.dtd" >
<svg xmlns="http://www.w3.org/2000/svg" xmlns:xlink="http://www.w3.org/1999/xlink" version="1.1" viewBox="-10 0 1034 1024">
  <g transform="matrix(1 0 0 -1 0 819)">
   <path fill="currentColor"
d="M505 631h307l-119 123c-5 5 -8 13 -8 21c0 7 3 15 8 20s13 8 20 8c8 0 16 -3 21 -8l194 -194l-194 -195c-5 -5 -13 -8 -20 -8c-8 0 -16 3 -21 8s-7 13 -7 20c0 8 2 16 7 21l119 119h-307c-191 0 -345 -153 -345 -344s154 -345 345 -345c17 0 51 -10 51 -35
c0 -20 -20 -30 -47 -30c-226 0 -410 184 -410 410v5c0 223 183 404 406 404z" />
  </g>

</svg>
