<?xml version="1.0" standalone="no"?>
<!DOCTYPE svg PUBLIC "-//W3C//DTD SVG 1.1//EN" "http://www.w3.org/Graphics/SVG/1.1/DTD/svg11.dtd" >
<svg xmlns="http://www.w3.org/2000/svg" xmlns:xlink="http://www.w3.org/1999/xlink" version="1.1" viewBox="-10 0 1045 1024">
  <g transform="matrix(1 0 0 -1 0 819)">
   <path fill="currentColor"
d="M487 616c-154 -13 -279 -150 -280 -304v-273l107 107c4 3 10 5 14 5c14 0 26 -12 26 -25c0 -5 -2 -11 -4 -14c-57 -57 -171 -173 -171 -173l-172 172c-4 4 -7 12 -7 18s3 14 7 18s12 7 17 7c6 0 13 -3 17 -7l109 -107v273c1 183 149 344 331 360h4c18 0 27 -14 27 -29
c0 -13 -8 -26 -25 -28zM537 -2c154 13 279 150 280 304v273l-107 -107c-4 -3 -10 -5 -14 -5c-14 0 -26 12 -26 25c0 5 2 11 4 14l172 172s114 -115 172 -172c3 -4 7 -12 7 -18s-4 -14 -7 -18c-4 -4 -12 -7 -18 -7c-5 0 -13 3 -17 7l-109 108v-273
c0 -173 -150 -361 -334 -361c-16 0 -29 12 -29 28c0 13 5 27 26 30z" />
  </g>

</svg>
