<?xml version="1.0" standalone="no"?>
<!DOCTYPE svg PUBLIC "-//W3C//DTD SVG 1.1//EN" "http://www.w3.org/Graphics/SVG/1.1/DTD/svg11.dtd" >
<svg xmlns="http://www.w3.org/2000/svg" xmlns:xlink="http://www.w3.org/1999/xlink" version="1.1" viewBox="-10 0 1044 1024">
  <g transform="matrix(1 0 0 -1 0 819)">
   <path fill="currentColor"
d="M117 722c0 12 10 22 22 22s21 -10 21 -22s-9 -22 -21 -22s-22 10 -22 22zM205 722c0 12 10 22 22 22s21 -10 21 -22s-9 -22 -21 -22s-22 10 -22 22zM293 722c0 12 9 22 21 22s22 -10 22 -22s-10 -22 -22 -22s-21 10 -21 22zM973 470c28 0 51 -23 51 -51v-571
c0 -28 -23 -51 -51 -51h-790c-28 0 -51 23 -51 51v296h-81c-28 0 -51 23 -51 51v571c0 28 23 51 51 51h791c28 0 50 -23 50 -51v-296h81zM58 759v-74h777v74h-777zM58 202h73v217c0 28 23 51 51 51h653v158h-777v-426zM967 280h-778v-425h778v425zM189 338h777v74h-777v-74z
M248 375c0 12 10 22 22 22s22 -10 22 -22s-9.59961 -21.9199 -21.6641 -21.9199s-22.3359 9.91992 -22.3359 21.9199zM336.213 374.926c0 12.0645 9.78125 21.8447 21.8457 21.8447s21.8457 -9.78027 21.8457 -21.8447c0 -12.0654 -9.78125 -21.8457 -21.8457 -21.8457
s-21.8457 9.78027 -21.8457 21.8457zM424.277 374.926c0 12.0645 9.78027 21.8447 21.8457 21.8447c12.0645 0 21.8447 -9.78027 21.8447 -21.8447c0 -12.0654 -9.78027 -21.8457 -21.8447 -21.8457c-12.0654 0 -21.8457 9.78027 -21.8457 21.8457z" />
  </g>

</svg>
