<?xml version="1.0" standalone="no"?>
<!DOCTYPE svg PUBLIC "-//W3C//DTD SVG 1.1//EN" "http://www.w3.org/Graphics/SVG/1.1/DTD/svg11.dtd" >
<svg xmlns="http://www.w3.org/2000/svg" xmlns:xlink="http://www.w3.org/1999/xlink" version="1.1" viewBox="-10 0 1034 1024">
  <g transform="matrix(1 0 0 -1 0 819)">
   <path fill="currentColor"
d="M771 20c-5 -3 -10 -4 -15 -4c-11 0 -24 6 -29 15c-46 77 -130 129 -218 129c-89 0 -174 -51 -215 -129c-4 -7 -17 -13 -29 -13c-7 0 -13 2 -19 6c-7 4 -13 15 -13 26c0 4 1 7 3 11c55 99 160 164 273 164c112 0 218 -65 276 -164c2 -3 4 -8 4 -13c0 -9 -5 -20 -18 -28z
M512 802c273 0 495 -222 495 -495s-222 -495 -495 -495s-495 222 -495 495s222 495 495 495zM512 -123c239 0 430 193 430 430s-191 430 -430 430s-430 -191 -430 -430s191 -430 430 -430zM294 430c0 36 29 65 64 65c36 0 65 -29 65 -65s-29 -65 -65 -65
c-35 0 -64 29 -64 65zM591 430c0 36 29 65 64 65c36 0 65 -29 65 -65s-29 -65 -65 -65c-35 0 -64 29 -64 65z" />
  </g>

</svg>
