<?xml version="1.0" standalone="no"?>
<!DOCTYPE svg PUBLIC "-//W3C//DTD SVG 1.1//EN" "http://www.w3.org/Graphics/SVG/1.1/DTD/svg11.dtd" >
<svg xmlns="http://www.w3.org/2000/svg" xmlns:xlink="http://www.w3.org/1999/xlink" version="1.1" viewBox="-10 0 1034 1024">
  <g transform="matrix(1 0 0 -1 0 819)">
   <path fill="currentColor"
d="M1004 351v-88c0 -14 -18 -24 -28 -28l-126 -44l-17 -44l58 -120c2 -5 4 -10 4 -15c0 -7 -3 -14 -8 -19l-64 -65c-5 -5 -11 -7 -18 -7c-6 0 -12 1 -17 4l-119 58l-44 -17l-45 -127c-3 -10 -13 -20 -27 -20h-89c-13 0 -24 10 -27 20l-44 127l-45 17l-119 -58
c-6 -3 -12 -5 -17 -5c-7 0 -12 3 -17 8l-65 65c-5 5 -7 11 -7 18c0 5 1 11 3 16l58 120l-17 44l-126 44c-11 4 -21 14 -21 28v88c0 14 11 24 21 28l126 44l17 44l-58 120c-2 5 -3 10 -3 15c0 8 3 15 7 19l65 68c4 5 11 7 18 7c6 0 12 -1 16 -3l123 -62l44 17l44 127
c4 10 14 20 28 20h92c13 0 24 -10 27 -20l44 -127l45 -17l119 58c6 3 12 5 17 5c7 0 13 -3 17 -8l65 -65c5 -5 7 -12 7 -19c0 -5 -1 -10 -3 -15l-58 -120l17 -44l126 -44c10 -4 21 -13 21 -26v-2zM945 287v37l-122 44c-11 4 -17 11 -21 21l-24 61c-4 10 -4 21 0 31l55 116
l-27 27l-117 -54c-10 -5 -19 -4 -30 0l-62 24c-9 4 -17 10 -20 20l-45 123h-40l-45 -123c-3 -10 -9 -17 -17 -20l-61 -24c-12 -5 -21 -5 -31 0l-116 54l-27 -27l54 -109c5 -10 4 -20 0 -31l-24 -61c-3 -10 -10 -17 -20 -21l-123 -44v-41l123 -44c8 -3 13 -10 17 -21l24 -61
c4 -10 5 -20 0 -31l-55 -116l27 -27l117 54c9 5 20 4 30 0l62 -24c10 -4 17 -10 20 -20l41 -126h41l44 122c4 11 10 17 21 21l61 24c10 4 21 4 31 0l116 -55l27 27l-54 117c-5 10 -4 20 0 30l24 62c4 10 10 16 20 20zM512 536c126 0 229 -103 229 -229s-103 -229 -229 -229
s-229 103 -229 229s103 229 229 229zM512 140c92 0 167 75 167 167c0 89 -71 164 -164 164c-92 0 -167 -72 -167 -164s72 -167 164 -167z" />
  </g>

</svg>
