<?xml version="1.0" standalone="no"?>
<!DOCTYPE svg PUBLIC "-//W3C//DTD SVG 1.1//EN" "http://www.w3.org/Graphics/SVG/1.1/DTD/svg11.dtd" >
<svg xmlns="http://www.w3.org/2000/svg" xmlns:xlink="http://www.w3.org/1999/xlink" version="1.1" viewBox="-10 0 1043 1024">
  <g transform="matrix(1 0 0 -1 0 819)">
   <path fill="currentColor"
d="M617 529c3 2 9 3 13 3c8 0 17 -5 21 -12c34 -54 64 -149 66 -213c-2 -63 -30 -157 -63 -210c-4 -7 -13 -12 -21 -12c-4 0 -10 1 -13 3c-6 4 -11 13 -11 20c0 4 1 9 3 12c29 48 53 131 55 187c-2 56 -28 140 -58 188c-2 3 -4 9 -4 13c0 7 6 17 12 21zM732 -19
c-5 4 -10 13 -10 20c0 5 2 11 5 15c48 73 88 204 88 293c0 88 -39 220 -88 293c-2 3 -5 10 -5 14c0 7 6 12 10 20c4 2 10 4 14 4c7 0 16 -4 20 -10c54 -81 97 -224 97 -321c0 -96 -43 -240 -97 -320c-4 -6 -13 -11 -20 -11c-3 0 -10 0 -14 3zM835 -122c-4 4 -8 12 -8 19
c0 5 3 12 6 15c78 96 142 273 142 397c0 122 -63 299 -140 394c-3 3 -6 10 -6 15c0 7 4 15 9 19c3 3 11 6 16 6c6 0 14 -4 18 -9c83 -102 151 -293 151 -425c0 -133 -69 -325 -154 -428c-4 -5 -12 -8 -18 -8c-5 0 -12 1 -16 5zM457 -78c-5 0 -13 3 -16 7l-247 246h-117
c-42 0 -77 35 -77 78v108c0 43 35 78 77 78h117l246 246c4 4 12 7 17 7c13 0 23 -10 23 -24v-722c0 -13 -10 -24 -23 -24zM77 392c-16 0 -30 -14 -30 -31v-109c0 -28 38 -34 79 -34c29 0 59 3 79 3c5 0 12 -3 16 -7l213 -212v610l-213 -213c-4 -4 -12 -7 -17 -7h-127z" />
  </g>

</svg>
