<?xml version="1.0" standalone="no"?>
<!DOCTYPE svg PUBLIC "-//W3C//DTD SVG 1.1//EN" "http://www.w3.org/Graphics/SVG/1.1/DTD/svg11.dtd" >
<svg xmlns="http://www.w3.org/2000/svg" xmlns:xlink="http://www.w3.org/1999/xlink" version="1.1" viewBox="-10 0 1034 1024">
  <g transform="matrix(1 0 0 -1 0 819)">
   <path fill="currentColor"
d="M243 -164c-33 1 -60 28 -60 61c0 2 1 7 1 10l46 268l-196 190c-10 10 -18 29 -18 43c0 29 23 56 52 59l269 39l121 245c9 18 33 34 54 34s45 -15 54 -34l120 -244l270 -40c29 -3 52 -30 52 -59c0 -14 -8 -34 -18 -43l-195 -190l46 -269c0 -2 1 -7 1 -10
c0 -33 -27 -60 -60 -60c-8 0 -21 3 -28 7l-239 126l-241 -126c-8 -5 -21 -7 -31 -7zM540 22l241 -126l-45 268c-1 3 -1 8 -1 11c0 14 8 33 18 43l195 189l-270 41c-17 2 -38 18 -45 34l-121 242l-121 -244c-7 -16 -28 -31 -45 -34l-269 -37l194 -190c10 -10 18 -29 18 -43
c0 -3 0 -7 -1 -10l-46 -269l242 126c8 3 18 5 28 5s20 -2 28 -6z" />
  </g>

</svg>
