<?xml version="1.0" standalone="no"?>
<!DOCTYPE svg PUBLIC "-//W3C//DTD SVG 1.1//EN" "http://www.w3.org/Graphics/SVG/1.1/DTD/svg11.dtd" >
<svg xmlns="http://www.w3.org/2000/svg" xmlns:xlink="http://www.w3.org/1999/xlink" version="1.1" viewBox="-13 0 1050 1024">
  <g transform="matrix(1 0 0 -1 0 819)">
   <path fill="currentColor"
d="M512 77l-258 257c-7 7 -13 21 -13 31c0 23 20 42 43 42c10 0 23 -5 30 -12l155 -156v454c0 24 19 43 43 43s43 -19 43 -43v-454l155 155c7 6 20 12 30 12s23 -6 30 -12c7 -7 13 -21 13 -31c0 -9 -6 -23 -13 -30zM985 -122h-946c-23 0 -42 19 -42 43c0 23 19 42 42 42h946
c23 0 42 -19 42 -42c0 -24 -19 -43 -42 -43z" />
  </g>

</svg>
