<?xml version="1.0" standalone="no"?>
<!DOCTYPE svg PUBLIC "-//W3C//DTD SVG 1.1//EN" "http://www.w3.org/Graphics/SVG/1.1/DTD/svg11.dtd" >
<svg xmlns="http://www.w3.org/2000/svg" xmlns:xlink="http://www.w3.org/1999/xlink" version="1.1" viewBox="-10 0 1034 1024">
  <g transform="matrix(1 0 0 -1 0 819)">
   <path fill="currentColor"
d="M860 628c20 -48 30 -102 30 -157c0 -104 -35 -208 -98 -266l-7 -7c-7 -7 -23 -27 -61 -68c-27 -27 -73 -150 -93 -222c-7 -55 -57 -93 -112 -93c-54 0 -82 60 -82 113c0 79 24 161 48 236h-209c-31 0 -61 10 -85 34c-18 18 -28 42 -28 67c0 13 2 26 8 39c3 7 7 13 10 20
c-27 17 -48 51 -48 85s17 66 48 86c-17 17 -24 37 -24 61c0 34 17 65 48 82c-14 17 -24 42 -24 62c0 55 47 101 102 101h321c113 0 215 -67 256 -173zM802 604c-31 85 -112 136 -201 136h-318c-20 0 -41 -16 -41 -40c0 -20 17 -42 41 -42c17 0 31 -13 31 -30
s-14 -31 -31 -31h-27c-20 0 -41 -17 -41 -41s20 -45 44 -45c17 0 24 -13 24 -30s-13 -31 -30 -31h-21c-20 0 -41 -17 -41 -41c0 -20 21 -41 45 -41h30c17 0 31 -13 31 -30s-14 -31 -31 -31s-35 -14 -41 -31c-1 -3 -2 -7 -2 -11c0 -11 5 -23 13 -30c12 -11 27 -13 44 -13h246
c7 0 18 -2 24 -7s8 -13 8 -21c0 -9 -2 -20 -5 -27c-27 -79 -55 -165 -55 -246c0 -25 5 -42 31 -47c4 -1 8 -1 12 -1c15 0 31 7 39 48c6 31 62 198 103 246c38 41 60 68 68 75c51 51 78 137 78 223c0 49 -9 97 -27 139z" />
  </g>

</svg>
