<?xml version="1.0" standalone="no"?>
<!DOCTYPE svg PUBLIC "-//W3C//DTD SVG 1.1//EN" "http://www.w3.org/Graphics/SVG/1.1/DTD/svg11.dtd" >
<svg xmlns="http://www.w3.org/2000/svg" xmlns:xlink="http://www.w3.org/1999/xlink" version="1.1" viewBox="-10 0 1034 1024">
  <g transform="matrix(1 0 0 -1 0 819)">
   <path fill="currentColor"
d="M210 24l-58 29l269 537l58 -29zM246 -113v65h529v-65h-529zM812 30l-266 531l58 29l266 -531zM512 583c-61 0 -109 49 -109 110c0 60 48 109 109 109s109 -48 109 -109s-48 -110 -109 -110zM512 737c-24 0 -44 -20 -44 -44c0 -25 20 -45 44 -45s44 21 44 45
s-20 44 -44 44zM898 31c60 0 109 -49 109 -110s-48 -109 -109 -109s-110 48 -110 109s49 110 110 110zM898 -123c24 0 44 20 44 44c0 25 -20 45 -44 45s-45 -21 -45 -45s21 -44 45 -44zM126 31c61 0 110 -49 110 -110s-49 -109 -110 -109s-109 48 -109 109s49 110 109 110z
M126 -123c23 0 45 20 45 44c0 26 -23 48 -48 48c-24 0 -45 -23 -45 -48s23 -44 48 -44z" />
  </g>

</svg>
