<?xml version="1.0" standalone="no"?>
<!DOCTYPE svg PUBLIC "-//W3C//DTD SVG 1.1//EN" "http://www.w3.org/Graphics/SVG/1.1/DTD/svg11.dtd" >
<svg xmlns="http://www.w3.org/2000/svg" xmlns:xlink="http://www.w3.org/1999/xlink" version="1.1" viewBox="-10 0 1034 1024">
  <g transform="matrix(1 0 0 -1 0 819)">
   <path fill="currentColor"
d="M410 710c-27 -27 -42 -65 -42 -103v-336c0 -37 15 -74 42 -101c28 -28 65 -41 102 -41c38 0 75 14 102 41s41 63 41 101v336c0 40 -14 76 -41 103c-28 28 -65 41 -102 41s-74 -13 -102 -41zM662 758c41 -41 61 -96 61 -151v-336c0 -116 -95 -213 -211 -213
s-212 97 -212 213v336c0 58 24 110 62 151c40 40 95 61 150 61s110 -21 150 -61zM758 -137c20 0 37 -14 37 -34s-14 -34 -34 -34h-495c-20 0 -34 14 -34 34s14 34 34 34h212v38c-191 0 -338 171 -338 362c0 20 14 34 34 34s34 -14 34 -34c0 -164 133 -297 297 -297h14
c164 0 297 133 297 297c0 20 14 34 34 34s34 -14 34 -34c0 -191 -147 -362 -338 -362v-38h212z" />
  </g>

</svg>
