<?xml version="1.0" standalone="no"?>
<!DOCTYPE svg PUBLIC "-//W3C//DTD SVG 1.1//EN" "http://www.w3.org/Graphics/SVG/1.1/DTD/svg11.dtd" >
<svg xmlns="http://www.w3.org/2000/svg" xmlns:xlink="http://www.w3.org/1999/xlink" version="1.1" viewBox="-10 0 1034 1024">
  <g transform="matrix(1 0 0 -1 0 819)">
   <path fill="currentColor"
d="M514 59c-34 0 -83 14 -112 33l323 323v-145c0 -116 -95 -210 -211 -211zM663 757c25 -24 51 -71 58 -105l-414 -413c-2 8 -3 23 -4 31v338c0 50 27 115 62 149c35 35 99 62 149 62s115 -27 149 -62zM212 263c0 -29 8 -74 17 -101l-52 -52c-18 41 -34 109 -34 154
c0 20 15 35 34 35c20 0 35 -16 35 -36zM480 -98c-60 5 -147 38 -194 75l49 48c42 -31 119 -56 172 -56h15c163 0 295 133 295 296c0 19 15 34 34 34s34 -15 34 -34c0 -187 -151 -349 -336 -363v-39h213c18 0 34 -15 34 -34s-16 -34 -34 -34h-495c-19 0 -34 15 -34 34
s15 34 34 34h213v39zM97 -137c-27 0 -48 20 -48 47c0 11 6 26 14 33l831 829c7 7 22 13 33 13c10 0 25 -6 33 -13c7 -8 14 -23 14 -33c0 -11 -7 -26 -14 -33l-830 -829c-7 -8 -22 -14 -33 -14z" />
  </g>

</svg>
