<?xml version="1.0" standalone="no"?>
<!DOCTYPE svg PUBLIC "-//W3C//DTD SVG 1.1//EN" "http://www.w3.org/Graphics/SVG/1.1/DTD/svg11.dtd" >
<svg xmlns="http://www.w3.org/2000/svg" xmlns:xlink="http://www.w3.org/1999/xlink" version="1.1" viewBox="-10 0 1034 1024">
  <g transform="matrix(1 0 0 -1 0 819)">
   <path fill="currentColor"
d="M635 112c0 14 10 25 24 25h160c75 0 144 54 144 129c0 38 -11 79 -38 106s-64 44 -102 44h-41v45c0 116 -96 211 -215 211c-82 0 -154 -47 -192 -119l-17 -38c-23 18 -45 31 -75 31c-44 0 -81 -35 -88 -79l-4 -20l-20 -7c-58 -20 -100 -68 -110 -130c-1 -6 -1 -11 -1 -17
c0 -36 15 -76 42 -105c31 -34 72 -51 116 -51h147c14 0 24 -11 24 -25s-10 -23 -24 -23h-147c-113 0 -201 88 -201 201c0 85 54 160 133 191c14 65 68 109 133 109c20 0 38 -3 55 -10c46 89 138 141 232 141c39 0 79 -9 116 -28c85 -44 144 -133 144 -232
c102 0 174 -93 174 -195c0 -96 -85 -177 -181 -177h-164c-14 0 -24 9 -24 23zM679 242c4 -4 5 -8 5 -12c0 -8 -5 -16 -12 -22c-5 -4 -11 -6 -17 -6s-13 2 -17 6l-105 106v-396c0 -14 -10 -24 -24 -24s-24 10 -24 24v396l-106 -106c-5 -5 -11 -7 -17 -7s-12 2 -17 7
s-7 11 -7 17s2 12 7 17l150 150c3 3 10 7 17 7s14 -4 17 -7z" />
  </g>

</svg>
