<?xml version="1.0" encoding="UTF-8"?><!DOCTYPE svg PUBLIC "-//W3C//DTD SVG 1.1//EN" "http://www.w3.org/Graphics/SVG/1.1/DTD/svg11.dtd"><svg xmlns="http://www.w3.org/2000/svg" xmlns:xlink="http://www.w3.org/1999/xlink" aria-hidden="true" role="img" class="iconify iconify--fluent" width="18.6px" height="19.2px" preserveAspectRatio="xMidYMid meet" viewBox="0 0 20 20" style="color: white;"><g fill="none"><path d="M2.854 2.146a.5.5 0 1 0-.708.708l1.355 1.354A2.5 2.5 0 0 0 2 6.5v7A2.5 2.5 0 0 0 4.5 16h6a2.5 2.5 0 0 0 2.492-2.3l4.154 4.154a.5.5 0 0 0 .708-.708l-15-15z" fill="currentColor"></path><path d="M16.764 14.432l-1.41-1.199L14 11.88V7.93l2.77-2.314a.75.75 0 0 1 1.23.576v7.667a.75.75 0 0 1-1.236.572z" fill="currentColor"></path><path d="M13 10.879l-6.879-6.88H10.5A2.5 2.5 0 0 1 13 6.5v4.38z" fill="currentColor"></path></g></svg>