<?xml version="1.0" standalone="no"?>
<!DOCTYPE svg PUBLIC "-//W3C//DTD SVG 1.1//EN" "http://www.w3.org/Graphics/SVG/1.1/DTD/svg11.dtd" >
<svg xmlns="http://www.w3.org/2000/svg" xmlns:xlink="http://www.w3.org/1999/xlink" version="1.1" viewBox="-10 0 1044 1024">
  <g transform="matrix(1 0 0 -1 0 819)">
   <path fill="currentColor"
d="M453 113c0 31 27 58 58 58c32 0 59 -27 59 -58s-27 -58 -59 -58c-31 0 -58 27 -58 58zM512 -208c-283 0 -512 230 -512 512c0 283 229 512 512 512s512 -229 512 -512c0 -282 -229 -512 -512 -512zM512 751c-247 0 -447 -201 -447 -448s200 -448 447 -448
c248 0 448 201 448 448s-202 448 -448 448zM508 227c-20 0 -37 16 -38 36l-13 249v2c0 21 17 38 38 38h34c22 0 39 -17 39 -38v-2l-13 -250c-1 -19 -18 -35 -38 -35h-9z" />
  </g>

</svg>
