<?xml version="1.0" standalone="no"?>
<!DOCTYPE svg PUBLIC "-//W3C//DTD SVG 1.1//EN" "http://www.w3.org/Graphics/SVG/1.1/DTD/svg11.dtd" >
<svg xmlns="http://www.w3.org/2000/svg" xmlns:xlink="http://www.w3.org/1999/xlink" version="1.1" viewBox="-10 0 1044 1024">
  <g transform="matrix(1 0 0 -1 0 819)">
   <path fill="currentColor"
d="M194 116c-17 1 -31 16 -31 34c0 4 2 12 4 16c97 145 171 213 242 221c45 0 98 -24 126 -57c4 -4 11 -6 20 -6c24 0 65 15 127 59c37 27 93 75 125 106c4 2 11 4 16 4c19 0 34 -15 34 -34c0 -4 -2 -11 -4 -15c-34 -34 -94 -85 -133 -113c-67 -48 -122 -72 -165 -72
c-26 0 -48 9 -66 26c-15 20 -48 37 -73 37c-47 -4 -113 -68 -194 -191c-6 -9 -18 -15 -28 -15zM87 661c-12 0 -22 -10 -22 -22v-664c0 -12 10 -22 22 -22h850c12 0 22 10 22 22v664c0 12 -10 22 -22 22h-850zM937 726c48 0 87 -39 87 -87v-664c0 -48 -39 -87 -87 -87h-850
c-48 0 -87 39 -87 87v664c0 48 39 87 87 87h850z" />
  </g>

</svg>
